:version 1.10
:name ASF
:units
  mass 1
  length 1
  angle deg
:documentation
  ASF file generated by Kaydara
:root
  axis xyz
  order  tx ty tz rx ry rz
  position 0 0 0
  orientation 0 0 0
:bonedata
  begin
    id 1
    name SpineDummy
    direction 0.999998 -0.00179978 1.38929e-006
    length 3.60008
    axis 0 0 0 xyz
  end
  begin
    id 2
    name Spine
    direction 0.964365 0.262802 0.0305839
    length 8.13928
    axis 1.33928 -1.75354 15.2838 xyz
    dof rx ry rz
  end
  begin
    id 3
    name Spine1
    direction 0.811168 0.572065 0.12144
    length 7.14954
    axis 2.2224 -6.9761 35.2157 xyz
    dof rx ry rz
  end
  begin
    id 4
    name Neck
    direction 0 0 0
    length 0
    axis 2.2224 -6.9761 35.2157 xyz
    dof rx ry rz
  end
  begin
    id 5
    name HeadDummy
    direction 0.810939 0.572387 0.121455
    length 3.55534
    axis 2.2224 -6.9761 35.2157 xyz
  end
  begin
    id 6
    name Head
    direction 0.998226 -0.000232542 0.0595419
    length 7.35666
    axis -3.03688 -3.41352 -0.0133467 xyz
    dof rx ry rz
  end
  begin
    id 7
    name R_ClavicleDummy
    direction 0.531669 -0.194489 -0.824319
    length 2.49392
    axis 2.2224 -6.9761 35.2157 xyz
  end
  begin
    id 8
    name R_Clavicle
    direction -0.155119 0.0480802 -0.986725
    length 4.485
    axis -54.2764 80.6538 162.779 xyz
    dof rx ry rz
  end
  begin
    id 9
    name R_UpperArm
    direction -0.955567 0.200068 -0.216484
    length 10.1122
    axis -72.9943 12.5026 168.175 xyz
    dof rx ry rz
  end
  begin
    id 10
    name R_Forearm
    direction -0.61433 0.385743 0.688332
    length 9.39148
    axis -117.015 -43.4982 147.875 xyz
    dof rx ry rz
  end
  begin
    id 11
    name R_Hand
    direction -0.699429 0.0170333 0.714499
    length 3.66324
    axis -45.0303 -36.7097 175.478 xyz
    dof rx ry rz
  end
  begin
    id 12
    name L_ClavicleDummy
    direction 0.40287 -0.36502 0.839319
    length 2.49392
    axis 2.2224 -6.9761 35.2157 xyz
  end
  begin
    id 13
    name L_Clavicle
    direction -0.231271 -0.0726419 0.970174
    length 4.485
    axis 18.4357 -75.9711 -162.563 xyz
    dof rx ry rz
  end
  begin
    id 14
    name L_UpperArm
    direction -0.917494 0.144359 0.370629
    length 10.1122
    axis 56.0417 -21.7544 171.058 xyz
    dof rx ry rz
  end
  begin
    id 15
    name L_Forearm
    direction -0.496786 0.615074 -0.612281
    length 9.39148
    axis 89.8094 37.7546 128.927 xyz
    dof rx ry rz
  end
  begin
    id 16
    name L_Hand
    direction -0.409932 0.64962 -0.640274
    length 3.66324
    axis -0.424369 32.133 128.52 xyz
    dof rx ry rz
  end
  begin
    id 17
    name L_ThighDummy
    direction -1.84081e-006 1.87549e-006 1
    length 3.13049
    axis 0 0 0 xyz
  end
  begin
    id 18
    name L_Thigh
    direction -0.947739 0.307978 0.083308
    length 17.9961
    axis 173.219 -4.77873 161.998 xyz
    dof rx ry rz
  end
  begin
    id 19
    name L_Calf
    direction -0.728814 -0.684427 0.0197583
    length 13.3367
    axis 167.331 -1.13214 -136.799 xyz
    dof rx ry rz
  end
  begin
    id 20
    name L_Foot
    direction -0.9028 0.418719 0.0981191
    length 5.8674
    axis 163.436 11.5135 -155.37 xyz
    dof rx ry rz
  end
  begin
    id 21
    name L_Toe0
    direction -0.35341 0.886259 0.299411
    length 4.75286
    axis 169.316 -17.4222 111.74 xyz
    dof rx ry rz
  end
  begin
    id 22
    name R_ThighDummy
    direction 9.32778e-007 -8.82053e-007 -1
    length 3.13049
    axis 0 0 0 xyz
  end
  begin
    id 23
    name R_Thigh
    direction -0.925064 0.37528 -0.0585023
    length 17.9961
    axis -178.698 3.35385 157.919 xyz
    dof rx ry rz
  end
  begin
    id 24
    name R_Calf
    direction -0.68969 -0.718776 -0.0876886
    length 13.3367
    axis -160.504 5.03065 -133.817 xyz
    dof rx ry rz
  end
  begin
    id 25
    name R_Foot
    direction -0.857405 0.418858 -0.299022
    length 5.8674
    axis -161.328 4.38911 -154.413 xyz
    dof rx ry rz
  end
  begin
    id 26
    name R_Toe0
    direction -0.100745 0.952789 -0.286433
    length 4.75286
    axis 171.683 16.6445 96.0359 xyz
    dof rx ry rz
  end
:hierarchy
  begin
    root SpineDummy L_ThighDummy R_ThighDummy
    SpineDummy Spine
    Spine Spine1
    Spine1 Neck
    Neck HeadDummy R_ClavicleDummy L_ClavicleDummy
    HeadDummy Head
    R_ClavicleDummy R_Clavicle
    R_Clavicle R_UpperArm
    R_UpperArm R_Forearm
    R_Forearm R_Hand
    L_ClavicleDummy L_Clavicle
    L_Clavicle L_UpperArm
    L_UpperArm L_Forearm
    L_Forearm L_Hand
    L_ThighDummy L_Thigh
    L_Thigh L_Calf
    L_Calf L_Foot
    L_Foot L_Toe0
    R_ThighDummy R_Thigh
    R_Thigh R_Calf
    R_Calf R_Foot
    R_Foot R_Toe0
  end

:SAMPLES-PER-SECOND 30
:FULLY-SPECIFIED
:DEGREES
393
root  -8.31159 13.5439 -11.9815 -117.482 -40.2717 135.51
Spine  15.7028 13.0891 20.1753
Spine1  14.6881 -33.3633 -12.6746
Neck  3.97569e-016 0 -2.38542e-015
Head  40.6001 15.1425 28.2144
R_Clavicle  1.34717 13.4822 5.0659
R_UpperArm  67.7296 48.2452 32.5534
R_Forearm  20.1615 -20.3273 17.9048
R_Hand  -0.444856 9.59247 -15.2381
L_Clavicle  -0.551242 19.1092 -0.261346
L_UpperArm  -33.4214 25.3896 53.028
L_Forearm  -31.8476 -5.6046 -2.18687
L_Hand  61.1187 -64.4045 -88.7664
L_Thigh  -18.0076 -12.8348 16.0329
L_Calf  -18.5869 -0.936057 6.63141
L_Foot  5.92281 13.7837 7.84654
L_Toe0  0.505156 0.034446 -6.1361
R_Thigh  38.1158 11.4641 9.58828
R_Calf  -14.2673 -15.9927 -62.3488
R_Foot  -1.1382 3.9337 20.6577
R_Toe0  -6.81515 0.329632 -12.7761
394
root  -8.85568 13.0671 -13.3076 -112.992 -43.7011 129.213
Spine  16.4675 13.1122 18.7572
Spine1  15.792 -35.8608 -13.9959
Neck  3.97569e-016 0 -2.38542e-015
Head  39.6047 14.1925 29.4743
R_Clavicle  1.6352 15.7102 5.90119
R_UpperArm  70.3682 47.5768 40.3576
R_Forearm  19.8954 -23.0417 20.622
R_Hand  -0.52204 9.33702 -15.6908
L_Clavicle  -0.489174 17.3081 0.182919
L_UpperArm  -28.8374 27.2202 55.3667
L_Forearm  -28.4041 -5.86913 -4.41512
L_Hand  67.7159 -63.5962 -97.0918
L_Thigh  -17.3633 -11.0448 22.1058
L_Calf  -15.6163 -1.56415 11.141
L_Foot  5.80903 13.5859 7.67125
L_Toe0  0.505156 0.034446 -6.1361
R_Thigh  36.9968 13.1921 3.15383
R_Calf  3.59674 -16.3024 -64.6618
R_Foot  -9.44275 -6.10382 40.6812
R_Toe0  -1.49774 -0.278138 -17.4559
395
root  -9.5321 12.7297 -14.5446 -105.754 -48.4868 123.158
Spine  15.9629 13.4243 18.8724
Spine1  15.4762 -36.1259 -14.6613
Neck  3.97569e-016 0 -2.38542e-015
Head  41.0635 12.1586 31.5973
R_Clavicle  1.66675 16.8878 5.86633
R_UpperArm  69.1349 47.9252 45.1254
R_Forearm  18.7657 -26.2101 23.4867
R_Hand  -0.464757 8.79284 -15.0878
L_Clavicle  -0.435697 15.4419 -0.0861715
L_UpperArm  -23.8735 29.8915 59.0207
L_Forearm  -25.578 -6.21728 -6.33692
L_Hand  71.6865 -61.1397 -104.257
L_Thigh  -16.9557 -9.84521 25.8766
L_Calf  -13.8651 -1.41192 10.0374
L_Foot  5.0273 12.2538 6.51242
L_Toe0  0.505156 0.034446 -6.1361
R_Thigh  32.6243 9.40544 0.505457
R_Calf  13.117 -16.9146 -70.0034
R_Foot  -2.73047 3.85662 38.4468
R_Toe0  -0.392067 -0.32225 -12.6836
396
root  -10.1798 12.778 -15.7487 -95.0815 -54.7513 116.829
Spine  13.5527 13.3415 18.7818
Spine1  12.3444 -33.2566 -12.4355
Neck  3.97569e-016 0 -2.38542e-015
Head  46.4563 10.1838 33.4622
R_Clavicle  1.55624 16.8577 5.53657
R_UpperArm  66.3904 49.8856 45.8182
R_Forearm  17.406 -29.2829 25.6785
R_Hand  -0.375099 8.41423 -14.2629
L_Clavicle  -0.396593 14.2923 -0.391356
L_UpperArm  -19.544 31.6316 63.124
L_Forearm  -24.818 -6.12722 -7.59124
L_Hand  74.4642 -59.3173 -109.301
L_Thigh  -18.3793 -8.95828 25.7679
L_Calf  -15.6443 -0.81577 5.71156
L_Foot  4.81933 11.3773 6.67539
L_Toe0  0.505156 0.034446 -6.1361
R_Thigh  28.9897 7.24757 1.63432
R_Calf  25.5171 -17.375 -75.2048
R_Foot  3.6471 11.8143 15.7594
R_Toe0  8.38537 -2.56666 -2.13824
397
root  -10.8685 13.1261 -16.9159 -76.4445 -59.6301 104.756
Spine  8.77308 10.478 16.044
Spine1  7.34558 -27.5142 -7.89817
Neck  3.97569e-016 0 -2.38542e-015
Head  53.2494 9.97847 34.8095
R_Clavicle  1.59737 16.5932 5.678
R_UpperArm  63.7699 49.8391 41.6639
R_Forearm  16.7694 -29.9002 25.992
R_Hand  -0.230199 8.83638 -13.3869
L_Clavicle  -0.377676 13.7769 -0.499261
L_UpperArm  -16.0507 31.4628 66.6915
L_Forearm  -26.4049 -5.54715 -8.67866
L_Hand  77.1973 -57.2134 -114.464
L_Thigh  -20.5367 -10.6772 23.8712
L_Calf  -16.7147 -0.362781 2.48361
L_Foot  5.38823 12.4897 7.4142
L_Toe0  0.505156 0.034446 -6.1361
R_Thigh  24.5969 5.92712 3.94569
R_Calf  25.6853 -17.431 -76.1837
R_Foot  3.14367 9.62097 -11.6315
R_Toe0  18.4046 -7.81342 3.95747
398
root  -11.6529 13.7087 -17.8125 -54.4025 -60.3404 90.2813
Spine  4.59216 6.37585 12.1714
Spine1  3.58819 -21.2151 -4.27106
Neck  3.97569e-016 0 -2.38542e-015
Head  56.9018 11.2357 36.5184
R_Clavicle  1.95422 15.6657 6.92671
R_UpperArm  63.8419 45.8671 36.4287
R_Forearm  16.6786 -26.2383 23.2377
R_Hand  -0.0487446 9.37933 -12.3643
L_Clavicle  -0.400268 14.4623 -0.560393
L_UpperArm  -13.7326 29.9761 69.7056
L_Forearm  -23.3109 -5.1165 -9.90498
L_Hand  73.6824 -56.2887 -112.293
L_Thigh  -20.6635 -13.3731 22.172
L_Calf  -13.2328 -0.414143 2.844
L_Foot  5.9583 13.9505 7.79094
L_Toe0  0.505156 0.034446 -6.1361
R_Thigh  22.5221 7.57013 5.85261
R_Calf  12.5262 -17.1974 -73.3202
R_Foot  2.8068 6.44312 -18.8468
R_Toe0  16.3669 -8.79017 8.69317
399
root  -12.4773 14.2861 -18.3306 -37.5863 -58.3378 79.1566
Spine  3.01465 3.87411 10.213
Spine1  2.57897 -17.8071 -3.51293
Neck  3.97569e-016 0 -2.38542e-015
Head  56.4296 12.2508 38.397
R_Clavicle  1.72431 13.271 6.22188
R_UpperArm  69.1121 39.8362 34.6229
R_Forearm  16.3506 -18.8017 16.4833
R_Hand  0.103738 10.0067 -11.6409
L_Clavicle  -0.473344 16.6166 -0.39829
L_UpperArm  -13.5041 27.5686 72.7874
L_Forearm  -13.0791 -4.38259 -10.2398
L_Hand  60.4905 -57.7931 -96.5729
L_Thigh  -18.2912 -14.5837 21.2062
L_Calf  -10.4252 -1.03775 7.38276
L_Foot  6.04447 14.0145 7.9875
L_Toe0  0.505156 0.034446 -6.1361
R_Thigh  25.0324 9.08075 8.08697
R_Calf  1.51039 -16.6904 -68.1001
R_Foot  2.4766 7.28501 -6.24289
R_Toe0  7.49982 -3.66708 10.3531
